<svg width="600" height="600" viewBox="0 0 600 600" fill="none" xmlns="http://www.w3.org/2000/svg">
  <defs>
    <linearGradient id="netGrad" x1="0" y1="0" x2="1" y2="1">
      <stop offset="0" stop-color="#4F6BFF"/>
      <stop offset="1" stop-color="#8B5CF6"/>
    </linearGradient>
  </defs>
  <g stroke="url(#netGrad)" stroke-width="1.5" stroke-opacity="0.5">
    <line x1="100" y1="120" x2="260" y2="80"/>
    <line x1="260" y1="80" x2="420" y2="150"/>
    <line x1="100" y1="120" x2="180" y2="280"/>
    <line x1="260" y1="80" x2="300" y2="260"/>
    <line x1="420" y1="150" x2="480" y2="320"/>
    <line x1="180" y1="280" x2="300" y2="260"/>
    <line x1="300" y1="260" x2="480" y2="320"/>
    <line x1="180" y1="280" x2="220" y2="440"/>
    <line x1="300" y1="260" x2="360" y2="440"/>
    <line x1="480" y1="320" x2="420" y2="480"/>
    <line x1="220" y1="440" x2="360" y2="440"/>
    <line x1="360" y1="440" x2="420" y2="480"/>
  </g>
  <g fill="url(#netGrad)">
    <circle cx="100" cy="120" r="7"/>
    <circle cx="260" cy="80" r="9"/>
    <circle cx="420" cy="150" r="7"/>
    <circle cx="180" cy="280" r="10"/>
    <circle cx="300" cy="260" r="8"/>
    <circle cx="480" cy="320" r="7"/>
    <circle cx="220" cy="440" r="8"/>
    <circle cx="360" cy="440" r="10"/>
    <circle cx="420" cy="480" r="7"/>
  </g>
</svg>
