<svg width="24" height="24" viewBox="0 0 24 24" fill="none" xmlns="http://www.w3.org/2000/svg">
<circle cx="12" cy="12" r="3" fill="none" stroke="currentColor" stroke-width="2" stroke-linecap="round" stroke-linejoin="round"/><path d="M19.4 13.5a1.7 1.7 0 0 0 .34 1.87l.06.06a2 2 0 1 1-2.83 2.83l-.06-.06a1.7 1.7 0 0 0-1.87-.34 1.7 1.7 0 0 0-1.04 1.56V19a2 2 0 1 1-4 0v-.09a1.7 1.7 0 0 0-1.04-1.56 1.7 1.7 0 0 0-1.87.34l-.06.06a2 2 0 1 1-2.83-2.83l.06-.06a1.7 1.7 0 0 0 .34-1.87A1.7 1.7 0 0 0 3.09 12H3a2 2 0 1 1 0-4h.09a1.7 1.7 0 0 0 1.56-1.04 1.7 1.7 0 0 0-.34-1.87l-.06-.06a2 2 0 1 1 2.83-2.83l.06.06a1.7 1.7 0 0 0 1.87.34H9a1.7 1.7 0 0 0 1.04-1.56V3a2 2 0 1 1 4 0v.09a1.7 1.7 0 0 0 1.04 1.56 1.7 1.7 0 0 0 1.87-.34l.06-.06a2 2 0 1 1 2.83 2.83l-.06.06a1.7 1.7 0 0 0-.34 1.87V9a1.7 1.7 0 0 0 1.56 1.04H21a2 2 0 1 1 0 4h-.09a1.7 1.7 0 0 0-1.56 1.04Z" fill="none" stroke="currentColor" stroke-width="2" stroke-linecap="round" stroke-linejoin="round"/>
</svg>
